<mxfile host="app.diagrams.net" modified="2023-05-31T23:52:22.729Z" agent="Mozilla/5.0 (Windows NT 10.0; Win64; x64) AppleWebKit/537.36 (KHTML, like Gecko) Chrome/112.0.0.0 Safari/537.36 OPR/98.0.0.0" etag="TyHoqpgvQYkYsGJRdgUc" version="21.3.6" type="device">
  <diagram name="Страница 1" id="Wgl4TeI1rYdkXI3_WlwP">
    <mxGraphModel dx="2861" dy="1126" grid="1" gridSize="10" guides="1" tooltips="1" connect="1" arrows="1" fold="1" page="1" pageScale="1" pageWidth="827" pageHeight="1169" math="0" shadow="0">
      <root>
        <mxCell id="0" />
        <mxCell id="1" parent="0" />
        <mxCell id="zZmc8SSB_wje2vqv3UIp-2" value="Клиент" style="rounded=0;whiteSpace=wrap;html=1;" vertex="1" parent="1">
          <mxGeometry x="-350" y="330" width="120" height="60" as="geometry" />
        </mxCell>
        <mxCell id="zZmc8SSB_wje2vqv3UIp-4" value="IIS Reverse Proxy" style="rounded=0;whiteSpace=wrap;html=1;" vertex="1" parent="1">
          <mxGeometry x="-140" y="330" width="120" height="60" as="geometry" />
        </mxCell>
        <mxCell id="zZmc8SSB_wje2vqv3UIp-10" value="" style="endArrow=classic;html=1;rounded=0;exitX=0;exitY=0.25;exitDx=0;exitDy=0;entryX=1;entryY=0.25;entryDx=0;entryDy=0;" edge="1" parent="1" source="zZmc8SSB_wje2vqv3UIp-4" target="zZmc8SSB_wje2vqv3UIp-2">
          <mxGeometry relative="1" as="geometry">
            <mxPoint x="360" y="570" as="sourcePoint" />
            <mxPoint x="460" y="570" as="targetPoint" />
          </mxGeometry>
        </mxCell>
        <mxCell id="zZmc8SSB_wje2vqv3UIp-12" value="" style="endArrow=classic;html=1;rounded=0;exitX=1;exitY=0.75;exitDx=0;exitDy=0;entryX=0;entryY=0.75;entryDx=0;entryDy=0;" edge="1" parent="1" source="zZmc8SSB_wje2vqv3UIp-2" target="zZmc8SSB_wje2vqv3UIp-4">
          <mxGeometry relative="1" as="geometry">
            <mxPoint x="360" y="570" as="sourcePoint" />
            <mxPoint x="460" y="570" as="targetPoint" />
          </mxGeometry>
        </mxCell>
        <mxCell id="zZmc8SSB_wje2vqv3UIp-14" value="AJAX" style="text;html=1;align=center;verticalAlign=middle;resizable=0;points=[];autosize=1;strokeColor=none;fillColor=none;" vertex="1" parent="1">
          <mxGeometry x="-190" y="345" width="50" height="30" as="geometry" />
        </mxCell>
        <mxCell id="zZmc8SSB_wje2vqv3UIp-17" value="HTTP" style="text;html=1;align=center;verticalAlign=middle;resizable=0;points=[];autosize=1;strokeColor=none;fillColor=none;" vertex="1" parent="1">
          <mxGeometry x="-230" y="345" width="50" height="30" as="geometry" />
        </mxCell>
        <mxCell id="zZmc8SSB_wje2vqv3UIp-21" value="" style="verticalLabelPosition=bottom;verticalAlign=top;html=1;shape=mxgraph.basic.rect;fillColor2=none;strokeWidth=1;size=96;indent=5;dashed=1;dashPattern=8 8;fillColor=none;fontColor=#333333;strokeColor=#666666;fillStyle=hatch;gradientColor=default;" vertex="1" parent="1">
          <mxGeometry x="40" y="280" width="420" height="440" as="geometry" />
        </mxCell>
        <mxCell id="zZmc8SSB_wje2vqv3UIp-22" value="" style="endArrow=classic;html=1;rounded=0;exitX=1;exitY=0.25;exitDx=0;exitDy=0;entryX=-0.002;entryY=0.148;entryDx=0;entryDy=0;entryPerimeter=0;" edge="1" parent="1" source="zZmc8SSB_wje2vqv3UIp-4" target="zZmc8SSB_wje2vqv3UIp-21">
          <mxGeometry width="50" height="50" relative="1" as="geometry">
            <mxPoint x="390" y="600" as="sourcePoint" />
            <mxPoint x="440" y="550" as="targetPoint" />
            <Array as="points" />
          </mxGeometry>
        </mxCell>
        <mxCell id="zZmc8SSB_wje2vqv3UIp-24" value="" style="endArrow=classic;html=1;rounded=0;entryX=1;entryY=0.75;entryDx=0;entryDy=0;" edge="1" parent="1" target="zZmc8SSB_wje2vqv3UIp-4">
          <mxGeometry width="50" height="50" relative="1" as="geometry">
            <mxPoint x="40" y="375" as="sourcePoint" />
            <mxPoint x="50" y="356" as="targetPoint" />
            <Array as="points" />
          </mxGeometry>
        </mxCell>
        <mxCell id="zZmc8SSB_wje2vqv3UIp-25" value="Авторизация" style="rounded=0;whiteSpace=wrap;html=1;" vertex="1" parent="1">
          <mxGeometry x="110" y="330" width="120" height="60" as="geometry" />
        </mxCell>
        <mxCell id="zZmc8SSB_wje2vqv3UIp-26" value="Контроллер" style="rounded=0;whiteSpace=wrap;html=1;" vertex="1" parent="1">
          <mxGeometry x="110" y="420" width="120" height="60" as="geometry" />
        </mxCell>
        <mxCell id="zZmc8SSB_wje2vqv3UIp-27" value="Метод контроллера" style="rounded=0;whiteSpace=wrap;html=1;" vertex="1" parent="1">
          <mxGeometry x="110" y="510" width="120" height="60" as="geometry" />
        </mxCell>
        <mxCell id="zZmc8SSB_wje2vqv3UIp-28" value="Аутентификация" style="rounded=0;whiteSpace=wrap;html=1;" vertex="1" parent="1">
          <mxGeometry x="290" y="530" width="120" height="60" as="geometry" />
        </mxCell>
        <mxCell id="zZmc8SSB_wje2vqv3UIp-29" value="База данных" style="rounded=0;whiteSpace=wrap;html=1;" vertex="1" parent="1">
          <mxGeometry x="-180" y="670" width="120" height="60" as="geometry" />
        </mxCell>
        <mxCell id="zZmc8SSB_wje2vqv3UIp-50" style="edgeStyle=orthogonalEdgeStyle;rounded=0;orthogonalLoop=1;jettySize=auto;html=1;exitX=1;exitY=1;exitDx=0;exitDy=0;entryX=0;entryY=0.5;entryDx=0;entryDy=0;" edge="1" parent="1" source="zZmc8SSB_wje2vqv3UIp-30" target="zZmc8SSB_wje2vqv3UIp-34">
          <mxGeometry relative="1" as="geometry">
            <Array as="points">
              <mxPoint y="650" />
              <mxPoint y="650" />
            </Array>
          </mxGeometry>
        </mxCell>
        <mxCell id="zZmc8SSB_wje2vqv3UIp-30" value="Файловая система" style="rounded=0;whiteSpace=wrap;html=1;" vertex="1" parent="1">
          <mxGeometry x="-160" y="590" width="120" height="60" as="geometry" />
        </mxCell>
        <mxCell id="zZmc8SSB_wje2vqv3UIp-42" style="edgeStyle=orthogonalEdgeStyle;rounded=0;orthogonalLoop=1;jettySize=auto;html=1;exitX=0;exitY=0.75;exitDx=0;exitDy=0;entryX=1;entryY=0;entryDx=0;entryDy=0;" edge="1" parent="1" source="zZmc8SSB_wje2vqv3UIp-34" target="zZmc8SSB_wje2vqv3UIp-29">
          <mxGeometry relative="1" as="geometry">
            <Array as="points">
              <mxPoint x="-40" y="675" />
            </Array>
          </mxGeometry>
        </mxCell>
        <mxCell id="zZmc8SSB_wje2vqv3UIp-45" style="edgeStyle=orthogonalEdgeStyle;rounded=0;orthogonalLoop=1;jettySize=auto;html=1;exitX=0;exitY=1;exitDx=0;exitDy=0;entryX=1;entryY=0.5;entryDx=0;entryDy=0;" edge="1" parent="1" source="zZmc8SSB_wje2vqv3UIp-34" target="zZmc8SSB_wje2vqv3UIp-29">
          <mxGeometry relative="1" as="geometry">
            <Array as="points">
              <mxPoint x="70" y="690" />
              <mxPoint x="70" y="690" />
            </Array>
          </mxGeometry>
        </mxCell>
        <mxCell id="zZmc8SSB_wje2vqv3UIp-47" style="edgeStyle=orthogonalEdgeStyle;rounded=0;orthogonalLoop=1;jettySize=auto;html=1;exitX=0;exitY=0;exitDx=0;exitDy=0;entryX=1;entryY=0.75;entryDx=0;entryDy=0;" edge="1" parent="1" source="zZmc8SSB_wje2vqv3UIp-34" target="zZmc8SSB_wje2vqv3UIp-30">
          <mxGeometry relative="1" as="geometry">
            <Array as="points">
              <mxPoint x="110" y="635" />
            </Array>
          </mxGeometry>
        </mxCell>
        <mxCell id="zZmc8SSB_wje2vqv3UIp-34" value="Сервис" style="rounded=0;whiteSpace=wrap;html=1;" vertex="1" parent="1">
          <mxGeometry x="110" y="600" width="120" height="100" as="geometry" />
        </mxCell>
      </root>
    </mxGraphModel>
  </diagram>
</mxfile>
